<svg width="18" height="17" viewBox="0 0 18 17" fill="none" xmlns="http://www.w3.org/2000/svg">
<path fill-rule="evenodd" clip-rule="evenodd" d="M10 3.45224C6.3181 3.45224 3.33333 6.06345 3.33333 9.28454C3.33333 12.5056 6.3181 15.1168 10 15.1168C13.6819 15.1168 16.6667 12.5056 16.6667 9.28454C16.6667 8.41502 16.4496 7.59145 16.0609 6.85169C15.9072 6.55902 16.0537 6.21271 16.3882 6.07818C16.7228 5.94366 17.1186 6.07186 17.2724 6.36453C17.7397 7.254 18 8.24347 18 9.28454C18 13.1498 14.4183 16.2833 10 16.2833C5.58172 16.2833 2 13.1498 2 9.28454C2 5.41923 5.58172 2.28578 10 2.28578V3.45224Z" fill="#EEE4E4"/>
<path d="M10 5.16255V0.575467C10 0.328225 10.3296 0.193162 10.5467 0.351442L13.6927 2.64498C13.8526 2.76157 13.8526 2.97645 13.6927 3.09303L10.5467 5.38657C10.3296 5.54485 10 5.40979 10 5.16255Z" fill="#EEE4E4"/>
</svg>
