<svg width="411" height="823" viewBox="0 0 411 823" fill="none" xmlns="http://www.w3.org/2000/svg">
<path fill-rule="evenodd" clip-rule="evenodd" d="M264.025 -73.6178L213.096 -15.9615C154.22 44.6434 53.1059 161.96 126.066 212.405C199.026 262.851 454.751 245.48 448.992 327.414C442.489 407.345 173.759 584.576 167.256 664.507C161.497 746.441 409.275 732.019 541.111 721.86L665 714.648L-18.38 968.221L-31.0212 934.153C-43.6625 900.085 -68.9449 831.948 -94.9709 761.808C-120.253 693.671 -145.536 625.535 -170.818 557.399C-196.844 487.258 -222.127 419.122 -247.409 350.986C-272.692 282.849 -298.718 212.709 -311.359 178.641L-324 144.572L264.025 -73.6178Z" fill="#F5F4F5" fill-opacity="0.8"/>
</svg>
