<svg width="22" height="22" viewBox="0 0 22 22" fill="none" xmlns="http://www.w3.org/2000/svg">
<path d="M12.3332 6.8333C12.736 6.43057 13.3889 6.43057 13.7917 6.8333C14.1894 7.23108 14.1943 7.873 13.8063 8.27677L8.31701 15.1384C8.30909 15.1483 8.30062 15.1577 8.29165 15.1667C7.88893 15.5694 7.23597 15.5694 6.83325 15.1667L3.19438 11.5278C2.79165 11.1251 2.79165 10.4722 3.19438 10.0694C3.59711 9.6667 4.25006 9.6667 4.65279 10.0694L7.53138 12.948L12.3059 6.86414C12.3144 6.85332 12.3235 6.84302 12.3332 6.8333Z" fill="#1E95D9"/>
<path d="M11.0677 13.9011L12.3332 15.1667C12.736 15.5694 13.3889 15.5694 13.7917 15.1667C13.8006 15.1577 13.8091 15.1483 13.817 15.1384L19.3063 8.27677C19.6943 7.873 19.6894 7.23108 19.2917 6.8333C18.8889 6.43057 18.236 6.43057 17.8332 6.8333C17.8235 6.84302 17.8144 6.85332 17.8059 6.86414L13.0314 12.948L12.364 12.2807L11.0677 13.9011Z" fill="#1E95D9"/>
</svg>
