<svg width="105" height="105" viewBox="0 0 105 105" fill="none" xmlns="http://www.w3.org/2000/svg">
<g opacity="0.7" clip-path="url(#clip0)">
<path d="M79.4977 36.0938H41.7437L58.3005 19.5368C58.9163 18.9223 59.7507 18.5772 60.6207 18.5772C61.4907 18.5772 62.3251 18.9223 62.941 19.5368L79.4977 36.0938ZM44.3789 83.1416C43.9481 83.1423 43.5213 83.0579 43.1231 82.8932C42.7249 82.7286 42.3632 82.4869 42.0587 82.182L25.5023 65.625H63.2572L46.7004 82.182C46.3958 82.487 46.0339 82.7288 45.6355 82.8935C45.2371 83.0582 44.81 83.1425 44.3789 83.1416Z" fill="url(#paint0_linear)"/>
<path d="M78.75 32.8125H26.25C24.4378 32.8125 22.9688 34.2816 22.9688 36.0937V65.625C22.9688 67.4372 24.4378 68.9062 26.25 68.9062H78.75C80.5622 68.9062 82.0312 67.4372 82.0312 65.625V36.0937C82.0312 34.2816 80.5622 32.8125 78.75 32.8125Z" fill="url(#paint1_linear)"/>
<path d="M81.7998 90.4659L84.231 69.801L88.0951 76.0169C92.7255 69.0501 95.1831 60.8652 95.1563 52.5C95.1563 19.6213 59.3818 -0.772328 31.1789 15.5474L29.7589 16.3689L24.8286 7.84895C25.7209 7.46689 36.8569 -0.338381 53.2574 -0.0389667C96.5226 0.747098 119.44 49.6494 95.045 83.2656L102.236 88.0616L81.7998 90.4659Z" fill="url(#paint2_linear)"/>
<path d="M51.7427 105.039C9.40347 104.27 -15.0312 56.1655 9.95513 21.7344L2.76386 16.9394L23.2003 14.5351L20.7691 35.199L16.905 28.983C12.2745 35.9499 9.81694 44.1347 9.84377 52.5C9.84377 85.374 45.6147 105.775 73.8212 89.4525L75.2411 88.631L80.1714 97.151C79.2791 97.533 68.1432 105.338 51.7427 105.039Z" fill="url(#paint3_linear)"/>
<path d="M82.0312 45.9375H80.3906C77.3448 45.9375 74.4237 44.7275 72.2699 42.5738C70.1162 40.4201 68.9062 37.499 68.9062 34.4531V32.8125H78.75C79.6202 32.8125 80.4548 33.1582 81.0702 33.7736C81.6856 34.3889 82.0312 35.2235 82.0312 36.0938V45.9375Z" fill="#499172"/>
<path d="M22.9688 45.9375H24.6094C27.6552 45.9375 30.5763 44.7275 32.7301 42.5738C34.8838 40.4201 36.0938 37.499 36.0938 34.4531V32.8125H26.25C25.3798 32.8125 24.5452 33.1582 23.9298 33.7736C23.3145 34.3889 22.9688 35.2235 22.9688 36.0938V45.9375Z" fill="#499172"/>
<path d="M82.0312 55.7812H80.3906C77.3448 55.7812 74.4237 56.9912 72.2699 59.1449C70.1162 61.2987 68.9062 64.2198 68.9062 67.2656V68.9062H78.75C79.6202 68.9062 80.4548 68.5606 81.0702 67.9452C81.6856 67.3298 82.0312 66.4952 82.0312 65.625V55.7812Z" fill="#499172"/>
<path d="M22.9688 55.7812H24.6094C27.6552 55.7812 30.5763 56.9912 32.7301 59.1449C34.8838 61.2987 36.0938 64.2198 36.0938 67.2656V68.9062H26.25C25.3798 68.9062 24.5452 68.5606 23.9298 67.9452C23.3145 67.3298 22.9688 66.4952 22.9688 65.625V55.7812Z" fill="#499172"/>
<path d="M52.6476 32.8125L28.7109 56.46L26.3915 54.1406L48.0088 32.8125H52.6476Z" fill="#76D994"/>
<path d="M66.4452 32.9355L37.7343 61.5234L33.0934 56.8845L57.2885 32.8125H66.4206L66.4452 32.9355Z" fill="#76D994"/>
<path d="M54.1406 49.2187H50.8594C50.4243 49.2187 50.007 49.0459 49.6993 48.7382C49.3916 48.4305 49.2187 48.0132 49.2187 47.5781C49.2187 47.143 49.3916 46.7257 49.6993 46.418C50.007 46.1103 50.4243 45.9375 50.8594 45.9375H57.4219V42.6562H54.1406V39.375H50.8594V42.6562C49.554 42.6562 48.3021 43.1748 47.3791 44.0978C46.4561 45.0209 45.9375 46.2728 45.9375 47.5781C45.9375 48.8835 46.4561 50.1354 47.3791 51.0584C48.3021 51.9814 49.554 52.5 50.8594 52.5H54.1406C54.5757 52.5 54.993 52.6728 55.3007 52.9805C55.6084 53.2882 55.7812 53.7055 55.7812 54.1406C55.7812 54.5757 55.6084 54.993 55.3007 55.3007C54.993 55.6084 54.5757 55.7812 54.1406 55.7812H47.5781V59.0625H50.8594V62.3437H54.1406V59.0625C55.446 59.0625 56.6979 58.5439 57.6209 57.6209C58.5439 56.6979 59.0625 55.446 59.0625 54.1406C59.0625 52.8352 58.5439 51.5833 57.6209 50.6603C56.6979 49.7373 55.446 49.2187 54.1406 49.2187Z" fill="white"/>
<path d="M62.3438 49.2188H65.625V52.5H62.3438V49.2188Z" fill="white"/>
<path d="M39.375 49.2188H42.6562V52.5H39.375V49.2188Z" fill="white"/>
</g>
<defs>
<linearGradient id="paint0_linear" x1="52.5" y1="18.5772" x2="52.5" y2="83.1416" gradientUnits="userSpaceOnUse">
<stop stop-color="#549D7F"/>
<stop offset="0.27" stop-color="#56A180"/>
<stop offset="0.52" stop-color="#5CAC84"/>
<stop offset="0.762" stop-color="#67BF8B"/>
<stop offset="0.997" stop-color="#76D994"/>
<stop offset="1" stop-color="#76D994"/>
</linearGradient>
<linearGradient id="paint1_linear" x1="52.5" y1="32.8125" x2="52.5" y2="68.9062" gradientUnits="userSpaceOnUse">
<stop stop-color="#549D7F"/>
<stop offset="0.064" stop-color="#59A682"/>
<stop offset="0.251" stop-color="#66BD8A"/>
<stop offset="0.454" stop-color="#6FCD90"/>
<stop offset="0.685" stop-color="#74D693"/>
<stop offset="1" stop-color="#76D994"/>
</linearGradient>
<linearGradient id="paint2_linear" x1="64.9149" y1="-0.0473749" x2="64.9149" y2="90.4659" gradientUnits="userSpaceOnUse">
<stop stop-color="#F5B563"/>
<stop offset="0.031" stop-color="#F6BA66"/>
<stop offset="0.198" stop-color="#F8CE72"/>
<stop offset="0.387" stop-color="#FADC7A"/>
<stop offset="0.617" stop-color="#FBE47F"/>
<stop offset="1" stop-color="#FBE781"/>
</linearGradient>
<linearGradient id="paint3_linear" x1="40.0346" y1="14.5341" x2="40.0346" y2="105.047" gradientUnits="userSpaceOnUse">
<stop stop-color="#F07C68"/>
<stop offset="1" stop-color="#F3B775"/>
</linearGradient>
<clipPath id="clip0">
<rect width="105" height="105" fill="white"/>
</clipPath>
</defs>
</svg>
