<svg width="126" height="126" viewBox="0 0 126 126" fill="none" xmlns="http://www.w3.org/2000/svg">
<path d="M39.375 0C17.6287 0 0 17.6287 0 39.375C0 61.1213 17.6287 78.75 39.375 78.75C40.0717 78.7512 40.7403 78.4756 41.2335 77.9834L77.9834 41.2335C78.4754 40.7403 78.7512 40.0717 78.75 39.375C78.7269 17.6383 61.1117 0.0231328 39.375 0Z" fill="#FFA000"/>
<path d="M81.375 36.7499C56.7292 36.7499 36.7501 56.7293 36.7501 81.3748C36.7501 106.02 56.7292 126 81.375 126C106.021 126 126 106.021 126 81.3751C125.971 56.7413 106.009 36.7789 81.375 36.7499Z" fill="#FFC107"/>
<path d="M39.375 115.5C28.5309 114.931 19.3666 107.267 16.8892 96.6944L22.4438 99.4718C23.7412 100.12 25.3184 99.5934 25.9666 98.2957C26.6146 96.9983 26.0882 95.4211 24.7905 94.7729L14.2904 89.523C14.2168 89.4863 14.1329 89.4915 14.0542 89.46C13.7195 89.3323 13.3622 89.2734 13.0041 89.2867C12.9202 89.2823 12.836 89.2823 12.7521 89.2867C12.6701 89.3106 12.5897 89.3387 12.5107 89.3707C11.8384 89.5289 11.2554 89.9458 10.8884 90.531C10.8463 90.5992 10.7782 90.6464 10.7415 90.72L5.49159 101.22C4.84338 102.517 5.36904 104.093 6.66571 104.742C6.66644 104.742 6.66694 104.743 6.66767 104.743C7.04371 104.925 7.45788 105.013 7.87526 105C8.87046 105.002 9.78125 104.441 10.2272 103.551L12.2641 99.477C15.7382 111.693 26.6837 120.281 39.375 120.75C40.8247 120.75 42.0001 119.575 42.0001 118.125C42.0001 116.675 40.8247 115.5 39.375 115.5Z" fill="#455A64"/>
<path d="M119.301 21.2677C118.004 20.6194 116.428 21.1451 115.779 22.4418C115.779 22.4425 115.778 22.443 115.778 22.4437L113.741 26.5178C110.265 14.3025 99.3168 5.71576 86.625 5.24991C85.1752 5.24991 83.9999 6.42525 83.9999 7.87499C83.9999 9.32473 85.1752 10.5001 86.625 10.5001C97.4639 11.0695 106.625 18.7285 109.105 29.295L103.551 26.5178C102.253 25.8699 100.676 26.3963 100.028 27.6939C99.38 28.9913 99.9064 30.5685 101.204 31.2167L111.704 36.4667C111.741 36.4667 111.778 36.4667 111.814 36.4667C112.143 36.6365 112.505 36.7332 112.875 36.7502C113.353 36.7546 113.823 36.6237 114.229 36.3722L114.277 36.3301C114.623 36.1005 114.91 35.7909 115.111 35.4272C115.143 35.3747 115.201 35.3536 115.227 35.3012L120.477 24.8011C121.13 23.5066 120.61 21.9282 119.315 21.275C119.311 21.2726 119.306 21.2701 119.301 21.2677Z" fill="#455A64"/>
<path d="M83.9999 78.9338V63.1838C89.9062 63.9347 94.5 67.158 94.5 70.8908C94.5 72.3405 95.6753 73.5158 97.1251 73.5158C98.5748 73.5158 99.7502 72.3405 99.7502 70.8908C99.7502 64.1707 93.004 58.8157 84.0002 57.9494V55.125C84.0002 53.6753 82.8248 52.4999 81.3751 52.4999C79.9253 52.4999 78.75 53.6753 78.75 55.125V57.9337C69.7462 58.8263 63 64.1549 63 70.875C63 77.5951 69.7462 82.9501 78.75 83.8163V99.5663C72.8438 98.8155 68.2499 95.5922 68.2499 91.8594C68.2499 90.4097 67.0746 89.2343 65.6248 89.2343C64.1751 89.2343 62.9998 90.4097 62.9998 91.8594C62.9998 98.5795 69.7459 103.934 78.7498 104.801V107.625C78.7498 109.075 79.9251 110.25 81.3748 110.25C82.8246 110.25 83.9999 109.075 83.9999 107.625V104.816C93.0038 103.924 99.7499 98.595 99.7499 91.8749C99.7499 85.1548 93.0038 79.8001 83.9999 78.9338ZM68.2499 70.875C68.2499 67.1423 72.8438 63.9187 78.75 63.1681V78.5873C72.8438 77.8313 68.2499 74.6078 68.2499 70.875ZM83.9999 99.5821V84.168C89.9062 84.9188 94.5 88.1422 94.5 91.8749C94.5 95.6077 89.9062 98.8313 83.9999 99.5821Z" fill="#FAFAFA"/>
<path d="M39.375 63C29.0745 63 20.9999 57.2249 20.9999 49.8751V28.8752C20.9999 21.5251 29.0745 15.75 39.375 15.75C49.6755 15.75 57.75 21.5251 57.75 28.8749C57.75 30.3247 56.5747 31.5 55.125 31.5C53.6752 31.5 52.4999 30.3247 52.4999 28.8749C52.4999 24.6067 46.4885 20.9999 39.375 20.9999C32.2614 20.9999 26.25 24.6067 26.25 28.8749V49.8748C26.25 54.1431 32.2614 57.7498 39.375 57.7498C40.8247 57.7498 42 58.9252 42 60.3749C42 61.8247 40.8247 63 39.375 63Z" fill="#ECEFF1"/>
<path d="M44.6249 36.7499H18.3751C16.9253 36.7499 15.75 35.5746 15.75 34.1248C15.75 32.6751 16.9253 31.5 18.3751 31.5H44.6252C46.0749 31.5 47.2502 32.6753 47.2502 34.1251C47.2502 35.5748 46.0747 36.7499 44.6249 36.7499Z" fill="#ECEFF1"/>
<path d="M44.6249 47.25H18.3751C16.9253 47.25 15.75 46.0747 15.75 44.6249C15.75 43.1752 16.9253 41.9998 18.3751 41.9998H44.6252C46.0749 41.9998 47.2502 43.1752 47.2502 44.6249C47.25 46.0747 46.0747 47.25 44.6249 47.25Z" fill="#ECEFF1"/>
</svg>
