<svg width="110" height="110" viewBox="0 0 110 110" fill="none" xmlns="http://www.w3.org/2000/svg">
<g clip-path="url(#clip0)">
<path d="M43.6777 63.701H40.5195V46.3202H43.6777V63.701Z" fill="#0E2A47"/>
<path d="M57.5137 63.7012H54.4414V62.4122C53.582 63.4649 52.293 64.0665 50.918 64.002C47.6738 64.002 45.2461 61.3595 45.2461 57.836C45.2461 54.3126 47.6953 51.67 50.918 51.67C52.2715 51.627 53.582 52.2286 54.4414 53.2813V51.9923H57.5137V63.7012ZM48.4902 57.836C48.4902 59.6192 49.6719 61.0802 51.498 61.0802C53.3457 61.0802 54.5059 59.7052 54.5059 57.836C54.5059 55.9669 53.2812 54.5919 51.498 54.5919C49.7148 54.5919 48.5117 56.0528 48.5117 57.836H48.4902Z" fill="#0E2A47"/>
<path d="M73.2402 48.1464C73.2402 49.2636 72.3379 50.1444 71.2207 50.1444C70.1035 50.1444 69.2227 49.2421 69.2227 48.1464C69.2227 47.0292 70.125 46.1268 71.2207 46.1268C72.3379 46.1483 73.2402 47.0507 73.2402 48.1464ZM72.8105 63.7011H69.6309V51.9921H72.8105V63.7011Z" fill="#0E2A47"/>
<path d="M38.9512 49.3066C38.2422 48.9843 37.4902 48.8554 36.7168 48.9199C35.8145 49.0273 35.3418 49.4785 35.3418 50.5742V51.9922H38.9727V54.7851H35.3418V63.7226H32.1836V54.7851H30.0137V51.9922H32.1836V50.5097C32.1836 47.7382 33.6445 45.955 36.373 45.955C37.2539 45.9336 38.1562 46.1054 38.9727 46.4492L38.9512 49.3066Z" fill="#0E2A47"/>
<path d="M65.5918 61.0801C64.625 61.0801 63.8301 60.543 63.8301 59.1035V54.8066H68.0625V52.0137H63.8301V48.5332H60.6719V52.0137H59.082V54.8066H60.6719V59.3184C60.6719 62.3691 62.1543 64.002 65.0547 64.002C66.1074 64.0234 67.1387 63.7871 68.0625 63.3145L66.8594 60.7793C66.4727 60.9512 66.0215 61.0586 65.5918 61.0801Z" fill="#0E2A47"/>
<path d="M97.3242 57.8358C97.3242 61.3593 94.6172 64.0018 90.9863 64.0018C87.3555 64.0018 84.6484 61.3807 84.6484 57.8358C84.6484 54.2909 87.334 51.6698 90.9863 51.6698C94.6602 51.6698 97.3242 54.3124 97.3242 57.8358ZM87.8711 57.8358C87.8711 59.7264 89.2031 61.08 90.9648 61.08C92.7266 61.08 94.0801 59.7479 94.0801 57.8358C94.0801 55.9237 92.7481 54.5917 90.9648 54.5917C89.1816 54.5917 87.8926 55.9237 87.8926 57.8358H87.8711Z" fill="#0E2A47"/>
<path d="M110 56.246V63.701H106.82V57.2557C106.82 55.5585 105.982 54.6346 104.543 54.6346C103.082 54.6346 102.051 55.537 102.051 57.2772V63.701H98.9355V51.9921H102.008V53.3671C102.846 52.121 104.135 51.6698 105.445 51.6698C108.109 51.6698 110 53.5389 110 56.246Z" fill="#0E2A47"/>
<path d="M83.1445 59.8768C82.5644 60.5429 81.748 60.9725 80.8671 61.0585H80.6093L80.1152 60.994C79.2128 60.8436 78.4394 60.2636 78.0527 59.4257C77.8164 58.91 77.7089 58.3729 77.7089 57.8143C77.7089 57.2343 77.8164 56.6757 78.0742 56.16C78.4824 55.3436 79.2558 54.7636 80.1582 54.6346H80.8242C81.7265 54.6991 82.5644 55.1073 83.1445 55.8163L84.6699 53.1307C84.0254 52.5507 83.2519 52.1425 82.414 51.9276C81.8554 51.7772 81.2968 51.7128 80.7168 51.7128C80.0078 51.7128 79.2988 51.8202 78.6328 52.0136C77.7949 52.2714 77.0429 52.7011 76.3984 53.3026C75.1523 54.4843 74.4648 56.16 74.5078 57.8788C74.4648 59.5975 75.1523 61.2304 76.3769 62.4335C77.0214 63.0136 77.7734 63.4647 78.6113 63.7225C79.2988 63.9374 80.0293 64.0663 80.7597 64.0663C81.3398 64.0663 81.9199 64.0018 82.5 63.8514C83.3379 63.6151 84.1113 63.2069 84.7558 62.6268L83.1445 59.8768Z" fill="#0E2A47"/>
<path d="M12.9121 51.7344H7.49805L5.80078 48.791H14.6094L17.1875 44.3223H2.62109C1.69727 44.3223 0.816406 44.8164 0.365234 45.6328C-0.107422 46.4492 -0.107422 47.4375 0.365234 48.2539L9.64648 64.3457C10.377 65.5918 11.9883 66 13.2344 65.2695C13.6211 65.0332 13.9434 64.7324 14.1582 64.3457L14.459 63.8086L10.1836 56.3965L12.9121 51.7344Z" fill="#4AD295"/>
<path d="M23.4824 45.6328C23.0098 44.8164 22.1504 44.3223 21.2266 44.3223H20.582L13.5996 56.3965L16.1562 60.8652L23.4609 48.2324C23.9551 47.4375 23.9551 46.4492 23.4824 45.6328Z" fill="#4AD295"/>
</g>
<defs>
<clipPath id="clip0">
<rect width="110" height="110" fill="white"/>
</clipPath>
</defs>
</svg>
