<svg width="36" height="36" viewBox="0 0 36 36" fill="none" xmlns="http://www.w3.org/2000/svg">
<path d="M24.6302 12.4181L19.5777 11.1552L2.60483 18.5754L0 23.7857L8.84405 26.3257L27.156 18.1822L24.6302 12.4181Z" fill="#F6BB42"/>
<path d="M24.6303 12.4181L7.57837 19.9976L8.84407 26.3257L27.1561 18.1822L24.6303 12.4181Z" fill="#FFCE54"/>
<path d="M7.57838 19.9976L2.60488 18.5754L0.00109863 23.7857L8.84409 26.3257L7.57838 19.9976Z" fill="#E8AA3D"/>
<path d="M33.4742 14.9577L28.4217 13.6942L11.4488 21.1149L8.84399 26.3257L17.6879 28.8636L36 20.7206L33.4742 14.9577Z" fill="#F6BB42"/>
<path d="M33.4742 14.9576L16.4222 22.5355L17.6879 28.8636L35.9999 20.7206L33.4742 14.9576Z" fill="#FFCE54"/>
<path d="M16.4223 22.5355L11.4488 21.1149L8.84399 26.3257L17.6879 28.8636L16.4223 22.5355Z" fill="#E8AA3D"/>
<path d="M27.8723 8.39929L22.8208 7.13647L7.30478 13.9557L4.70093 19.1659L13.545 21.7049L30.3992 14.1627L27.8723 8.39929Z" fill="#F6BB42"/>
<path d="M27.8724 8.39929L12.2794 15.3767L13.5451 21.7049L30.3993 14.1627L27.8724 8.39929Z" fill="#FFCE54"/>
<path d="M12.2793 15.3767L7.30478 13.9557L4.70093 19.1659L13.545 21.7049L12.2793 15.3767Z" fill="#E8AA3D"/>
</svg>
