<svg width="120" height="120" viewBox="0 0 120 120" fill="none" xmlns="http://www.w3.org/2000/svg">
<path d="M8.07647 120H120V111.924H8.07647V98.1431H12.7227C14.4975 98.1431 15.9375 96.7039 15.9375 94.9282C15.9375 93.1535 14.4984 91.7135 12.7227 91.7135H8.07647V77.3567H12.7227C14.4975 77.3567 15.9375 75.9174 15.9375 74.1418C15.9375 72.3671 14.4984 70.9271 12.7227 70.9271H8.07647V56.5712H12.7227C14.4975 56.5712 15.9375 55.1322 15.9375 53.3565C15.9375 51.5818 14.4984 50.1418 12.7227 50.1418H8.07647V35.7849H12.7227C14.4975 35.7849 15.9375 34.3459 15.9375 32.5702C15.9375 30.7945 14.4984 29.3555 12.7227 29.3555H8.07647V15H12.7227C14.4984 15 15.9375 13.561 15.9375 11.7853C15.9375 10.0096 14.4984 8.57059 12.7227 8.57059H8.07647V0H0V111.924V120H8.07647Z" fill="#455A64"/>
<path d="M42.2372 105V73.9012L27.2372 84.1837V105H42.2372Z" fill="#FFA000"/>
<path d="M66.8804 105V57.0094L51.8804 67.2918V105H66.8804Z" fill="#FFA000"/>
<path d="M91.5225 105V40.1175L76.5225 50.399V105H91.5225Z" fill="#FFC107"/>
<path d="M100.739 105H116.208V24.3749L100.739 34.6874V105Z" fill="#FFC107"/>
<path d="M102.187 25.3125L112.5 0L83.4375 0.937451L90.9375 11.25L25.3126 55.3125V64.1249L95.2398 16.5835L102.187 25.3125Z" fill="#455A64"/>
</svg>
