<svg width="28" height="28" viewBox="0 0 28 28" fill="none" xmlns="http://www.w3.org/2000/svg">
<path fill-rule="evenodd" clip-rule="evenodd" d="M4.375 21C4.375 20.5168 4.76675 20.125 5.25 20.125H22.75C23.2332 20.125 23.625 20.5168 23.625 21C23.625 21.4832 23.2332 21.875 22.75 21.875H5.25C4.76675 21.875 4.375 21.4832 4.375 21Z" fill="#8E9294"/>
<path fill-rule="evenodd" clip-rule="evenodd" d="M4.375 14C4.375 13.5168 4.76675 13.125 5.25 13.125H22.75C23.2332 13.125 23.625 13.5168 23.625 14C23.625 14.4832 23.2332 14.875 22.75 14.875H5.25C4.76675 14.875 4.375 14.4832 4.375 14Z" fill="#8E9294"/>
<path fill-rule="evenodd" clip-rule="evenodd" d="M4.375 7C4.375 6.51675 4.76675 6.125 5.25 6.125H22.75C23.2332 6.125 23.625 6.51675 23.625 7C23.625 7.48325 23.2332 7.875 22.75 7.875H5.25C4.76675 7.875 4.375 7.48325 4.375 7Z" fill="#8E9294"/>
</svg>
