<svg width="17" height="22" viewBox="0 0 17 22" fill="none" xmlns="http://www.w3.org/2000/svg">
<path d="M14.1667 1.375C14.9491 1.375 15.5833 1.99061 15.5833 2.75V19.25C15.5833 20.0094 14.9491 20.625 14.1667 20.625H2.83333C2.05093 20.625 1.41667 20.0094 1.41667 19.25V2.75C1.41667 1.99061 2.05093 1.375 2.83333 1.375H14.1667ZM2.83333 0C1.26853 0 0 1.23122 0 2.75V19.25C0 20.7688 1.26853 22 2.83333 22H14.1667C15.7315 22 17 20.7688 17 19.25V2.75C17 1.23122 15.7315 0 14.1667 0H2.83333Z" fill="#C1C1C1"/>
<path d="M2.83333 3.4375C2.83333 3.0578 3.15047 2.75 3.54167 2.75H13.4583C13.8495 2.75 14.1667 3.0578 14.1667 3.4375V6.1875C14.1667 6.5672 13.8495 6.875 13.4583 6.875H3.54167C3.15047 6.875 2.83333 6.5672 2.83333 6.1875V3.4375Z" fill="#C1C1C1"/>
<path d="M2.83333 8.9375C2.83333 8.5578 3.15047 8.25 3.54167 8.25H4.95833C5.34953 8.25 5.66667 8.5578 5.66667 8.9375V10.3125C5.66667 10.6922 5.34953 11 4.95833 11H3.54167C3.15047 11 2.83333 10.6922 2.83333 10.3125V8.9375Z" fill="#C1C1C1"/>
<path d="M2.83333 13.0625C2.83333 12.6828 3.15047 12.375 3.54167 12.375H4.95833C5.34953 12.375 5.66667 12.6828 5.66667 13.0625V14.4375C5.66667 14.8172 5.34953 15.125 4.95833 15.125H3.54167C3.15047 15.125 2.83333 14.8172 2.83333 14.4375V13.0625Z" fill="#C1C1C1"/>
<path d="M2.83333 17.1875C2.83333 16.8078 3.15047 16.5 3.54167 16.5H4.95833C5.34953 16.5 5.66667 16.8078 5.66667 17.1875V18.5625C5.66667 18.9422 5.34953 19.25 4.95833 19.25H3.54167C3.15047 19.25 2.83333 18.9422 2.83333 18.5625V17.1875Z" fill="#C1C1C1"/>
<path d="M7.08333 8.9375C7.08333 8.5578 7.40047 8.25 7.79167 8.25H9.20833C9.59953 8.25 9.91667 8.5578 9.91667 8.9375V10.3125C9.91667 10.6922 9.59953 11 9.20833 11H7.79167C7.40047 11 7.08333 10.6922 7.08333 10.3125V8.9375Z" fill="#C1C1C1"/>
<path d="M7.08333 13.0625C7.08333 12.6828 7.40047 12.375 7.79167 12.375H9.20833C9.59953 12.375 9.91667 12.6828 9.91667 13.0625V14.4375C9.91667 14.8172 9.59953 15.125 9.20833 15.125H7.79167C7.40047 15.125 7.08333 14.8172 7.08333 14.4375V13.0625Z" fill="#C1C1C1"/>
<path d="M7.08333 17.1875C7.08333 16.8078 7.40047 16.5 7.79167 16.5H9.20833C9.59953 16.5 9.91667 16.8078 9.91667 17.1875V18.5625C9.91667 18.9422 9.59953 19.25 9.20833 19.25H7.79167C7.40047 19.25 7.08333 18.9422 7.08333 18.5625V17.1875Z" fill="#C1C1C1"/>
<path d="M11.3333 8.9375C11.3333 8.5578 11.6505 8.25 12.0417 8.25H13.4583C13.8495 8.25 14.1667 8.5578 14.1667 8.9375V10.3125C14.1667 10.6922 13.8495 11 13.4583 11H12.0417C11.6505 11 11.3333 10.6922 11.3333 10.3125V8.9375Z" fill="#C1C1C1"/>
<path d="M11.3333 13.0625C11.3333 12.6828 11.6505 12.375 12.0417 12.375H13.4583C13.8495 12.375 14.1667 12.6828 14.1667 13.0625V18.5625C14.1667 18.9422 13.8495 19.25 13.4583 19.25H12.0417C11.6505 19.25 11.3333 18.9422 11.3333 18.5625V13.0625Z" fill="#C1C1C1"/>
</svg>
