<svg width="48" height="48" viewBox="0 0 48 48" fill="none" xmlns="http://www.w3.org/2000/svg">
<g opacity="0.7" clip-path="url(#clip0)">
<path d="M36.3418 16.5H19.0828L26.6516 8.9311C26.9332 8.65019 27.3146 8.49243 27.7123 8.49243C28.11 8.49243 28.4915 8.65019 28.773 8.9311L36.3418 16.5ZM20.2875 38.0076C20.0905 38.0079 19.8954 37.9693 19.7134 37.8941C19.5314 37.8188 19.366 37.7083 19.2268 37.5689L11.6582 30H28.9176L21.3488 37.5689C21.2095 37.7083 21.044 37.8189 20.8619 37.8942C20.6798 37.9694 20.4846 38.008 20.2875 38.0076Z" fill="url(#paint0_linear)"/>
<path d="M36 15H12C11.1716 15 10.5 15.6716 10.5 16.5V30C10.5 30.8284 11.1716 31.5 12 31.5H36C36.8284 31.5 37.5 30.8284 37.5 30V16.5C37.5 15.6716 36.8284 15 36 15Z" fill="url(#paint1_linear)"/>
<path d="M37.3942 41.3559L38.5056 31.909L40.2721 34.7506C42.3888 31.5658 43.5123 27.8241 43.5001 24C43.5001 8.96973 27.146 -0.353049 14.2532 7.10739L13.6041 7.48295L11.3503 3.58811C11.7582 3.41345 16.8489 -0.154674 24.3463 -0.0177985C44.1246 0.341545 54.6013 22.6969 43.4492 38.0643L46.7366 40.2567L37.3942 41.3559Z" fill="url(#paint2_linear)"/>
<path d="M23.6538 48.0178C4.29873 47.6662 -6.8714 25.6757 4.55092 9.93575L1.26348 7.74378L10.6059 6.64465L9.49445 16.091L7.72801 13.2494C5.61122 16.4343 4.48775 20.1759 4.50001 24C4.50001 39.0281 20.8525 48.3545 33.7468 40.8926L34.396 40.5171L36.6498 44.4119C36.2419 44.5866 31.1512 48.1547 23.6538 48.0178Z" fill="url(#paint3_linear)"/>
<path d="M37.5 21H36.75C35.3576 21 34.0223 20.4469 33.0377 19.4623C32.0531 18.4777 31.5 17.1424 31.5 15.75V15H36C36.3978 15 36.7794 15.158 37.0607 15.4393C37.342 15.7206 37.5 16.1022 37.5 16.5V21Z" fill="#499172"/>
<path d="M10.5 21H11.25C12.6424 21 13.9778 20.4469 14.9623 19.4623C15.9469 18.4777 16.5 17.1424 16.5 15.75V15H12C11.6022 15 11.2207 15.158 10.9393 15.4393C10.658 15.7206 10.5 16.1022 10.5 16.5V21Z" fill="#499172"/>
<path d="M37.5 25.5H36.75C35.3576 25.5 34.0223 26.0531 33.0377 27.0377C32.0531 28.0222 31.5 29.3576 31.5 30.75V31.5H36C36.3978 31.5 36.7794 31.3419 37.0607 31.0606C37.342 30.7793 37.5 30.3978 37.5 30V25.5Z" fill="#499172"/>
<path d="M10.5 25.5H11.25C12.6424 25.5 13.9778 26.0531 14.9623 27.0377C15.9469 28.0222 16.5 29.3576 16.5 30.75V31.5H12C11.6022 31.5 11.2207 31.3419 10.9393 31.0606C10.658 30.7793 10.5 30.3978 10.5 30V25.5Z" fill="#499172"/>
<path d="M24.0675 15L13.125 25.8103L12.0647 24.75L21.9469 15H24.0675Z" fill="#76D994"/>
<path d="M30.375 15.0563L17.25 28.125L15.1284 26.0044L26.1891 15H30.3637L30.375 15.0563Z" fill="#76D994"/>
<path d="M24.75 22.5H23.25C23.0511 22.5 22.8603 22.421 22.7197 22.2803C22.579 22.1397 22.5 21.9489 22.5 21.75C22.5 21.5511 22.579 21.3603 22.7197 21.2197C22.8603 21.079 23.0511 21 23.25 21H26.25V19.5H24.75V18H23.25V19.5C22.6533 19.5 22.081 19.7371 21.659 20.159C21.237 20.581 21 21.1533 21 21.75C21 22.3467 21.237 22.919 21.659 23.341C22.081 23.7629 22.6533 24 23.25 24H24.75C24.9489 24 25.1397 24.079 25.2803 24.2197C25.421 24.3603 25.5 24.5511 25.5 24.75C25.5 24.9489 25.421 25.1397 25.2803 25.2803C25.1397 25.421 24.9489 25.5 24.75 25.5H21.75V27H23.25V28.5H24.75V27C25.3467 27 25.919 26.7629 26.341 26.341C26.7629 25.919 27 25.3467 27 24.75C27 24.1533 26.7629 23.581 26.341 23.159C25.919 22.737 25.3467 22.5 24.75 22.5Z" fill="white"/>
<path d="M28.5 22.5H30V24H28.5V22.5Z" fill="white"/>
<path d="M18 22.5H19.5V24H18V22.5Z" fill="white"/>
</g>
<defs>
<linearGradient id="paint0_linear" x1="24" y1="8.49244" x2="24" y2="38.0076" gradientUnits="userSpaceOnUse">
<stop stop-color="#549D7F"/>
<stop offset="0.27" stop-color="#56A180"/>
<stop offset="0.52" stop-color="#5CAC84"/>
<stop offset="0.762" stop-color="#67BF8B"/>
<stop offset="0.997" stop-color="#76D994"/>
<stop offset="1" stop-color="#76D994"/>
</linearGradient>
<linearGradient id="paint1_linear" x1="24" y1="15" x2="24" y2="31.5" gradientUnits="userSpaceOnUse">
<stop stop-color="#549D7F"/>
<stop offset="0.064" stop-color="#59A682"/>
<stop offset="0.251" stop-color="#66BD8A"/>
<stop offset="0.454" stop-color="#6FCD90"/>
<stop offset="0.685" stop-color="#74D693"/>
<stop offset="1" stop-color="#76D994"/>
</linearGradient>
<linearGradient id="paint2_linear" x1="29.6754" y1="-0.0216423" x2="29.6754" y2="41.3559" gradientUnits="userSpaceOnUse">
<stop stop-color="#F5B563"/>
<stop offset="0.031" stop-color="#F6BA66"/>
<stop offset="0.198" stop-color="#F8CE72"/>
<stop offset="0.387" stop-color="#FADC7A"/>
<stop offset="0.617" stop-color="#FBE47F"/>
<stop offset="1" stop-color="#FBE781"/>
</linearGradient>
<linearGradient id="paint3_linear" x1="18.3015" y1="6.64418" x2="18.3015" y2="48.0217" gradientUnits="userSpaceOnUse">
<stop stop-color="#F07C68"/>
<stop offset="1" stop-color="#F3B775"/>
</linearGradient>
<clipPath id="clip0">
<rect width="48" height="48" fill="white"/>
</clipPath>
</defs>
</svg>
