<svg width="200" height="200" viewBox="0 0 200 200" fill="none" xmlns="http://www.w3.org/2000/svg">
<path d="M165.027 100.833H34.9734L56.6484 66.6672H143.35L165.027 100.833Z" fill="#FED33C"/>
<path d="M78.3249 100.833H34.9734L56.6484 66.6672L78.3249 100.833Z" fill="#FEE179"/>
<path d="M121.675 100.833H78.3251L100 66.6672L121.675 100.833Z" fill="#FEE179"/>
<path d="M165.026 100.833H121.675L143.35 66.6672L165.026 100.833Z" fill="#FEE179"/>
<path d="M100 175.391L34.9734 100.833H165.027L100 175.391Z" fill="#FEB500"/>
<path d="M78.3251 100.833L100 175.391L121.675 100.833H78.3251Z" fill="#FED33C"/>
<path d="M100 21.875C99.2749 21.8754 98.5797 22.1636 98.067 22.6763C97.5543 23.189 97.266 23.8843 97.2656 24.6094V45.0516C97.2656 45.7768 97.5537 46.4723 98.0665 46.9851C98.5793 47.4979 99.2748 47.7859 100 47.7859C100.725 47.7859 101.421 47.4979 101.933 46.9851C102.446 46.4723 102.734 45.7768 102.734 45.0516V24.6094C102.734 23.8843 102.446 23.189 101.933 22.6763C101.42 22.1636 100.725 21.8754 100 21.875Z" fill="#FED33C"/>
<path d="M131.672 35C131.159 34.4876 130.464 34.1998 129.739 34.1998C129.014 34.1998 128.319 34.4876 127.806 35L113.35 49.4562C113.089 49.7085 112.881 50.0103 112.737 50.3439C112.594 50.6776 112.519 51.0364 112.516 51.3995C112.513 51.7625 112.582 52.1226 112.719 52.4586C112.857 52.7946 113.06 53.0999 113.317 53.3565C113.574 53.6132 113.879 53.8162 114.215 53.9536C114.551 54.091 114.911 54.1602 115.274 54.1569C115.637 54.1537 115.996 54.0782 116.33 53.9348C116.663 53.7914 116.965 53.5831 117.217 53.3219L131.672 38.8672C131.926 38.6134 132.128 38.312 132.265 37.9802C132.403 37.6484 132.474 37.2928 132.474 36.9336C132.474 36.5744 132.403 36.2188 132.265 35.887C132.128 35.5552 131.926 35.2538 131.672 35Z" fill="#FED33C"/>
<path d="M72.1875 35C71.6747 34.4872 70.9792 34.1991 70.2539 34.1991C69.5287 34.1991 68.8331 34.4872 68.3203 35C67.8075 35.5128 67.5194 36.2083 67.5194 36.9336C67.5194 37.6588 67.8075 38.3544 68.3203 38.8672L82.7766 53.3219C83.0288 53.5831 83.3304 53.7914 83.664 53.9348C83.9976 54.0782 84.3564 54.1537 84.7194 54.1569C85.0825 54.1601 85.4426 54.091 85.7787 53.9536C86.1147 53.8162 86.4201 53.6132 86.6769 53.3565C86.9337 53.0999 87.1368 52.7946 87.2743 52.4586C87.4119 52.1226 87.4811 51.7625 87.478 51.3994C87.475 51.0364 87.3996 50.6776 87.2564 50.3439C87.1131 50.0103 86.9049 49.7085 86.6438 49.4562L72.1875 35Z" fill="#FED33C"/>
</svg>
