<svg width="28" height="28" viewBox="0 0 28 28" fill="none" xmlns="http://www.w3.org/2000/svg">
<path d="M5.425 1.225C5.59025 1.00467 5.84959 0.875 6.125 0.875H21.875C22.1506 0.875 22.4101 1.00485 22.5753 1.22544L27.7835 8.17879C28.0437 8.5026 28.056 8.96694 27.8018 9.30594L14.7 26.775C14.5348 26.9953 14.2754 27.125 14 27.125C13.7246 27.125 13.4652 26.9953 13.3 26.775L0.175 9.275C-0.0583333 8.96389 -0.0583333 8.53611 0.175 8.225L5.425 1.225ZM25.3504 7.84948L22.1898 3.62989L20.832 7.85419L25.3504 7.84948ZM18.9932 7.85611L20.6747 2.625H7.32534L9.01011 7.86652L18.9932 7.85611ZM9.57243 9.61593L14 23.3906L18.4305 9.60669L9.57243 9.61593ZM7.17255 7.86843L5.80976 3.62865L2.62637 7.87317L7.17255 7.86843ZM2.62363 9.62318L11.5713 21.5534L7.73486 9.61785L2.62363 9.62318ZM16.4287 21.5534L25.3942 9.59943L20.2693 9.60478L16.4287 21.5534Z" fill="#8E9294"/>
</svg>
