<svg width="28" height="28" viewBox="0 0 28 28" fill="none" xmlns="http://www.w3.org/2000/svg">
<path fill-rule="evenodd" clip-rule="evenodd" d="M0 0H1.75V26.25H28V28H0V0ZM17.5 6.125C17.5 5.64175 17.8918 5.25 18.375 5.25H25.375C25.8582 5.25 26.25 5.64175 26.25 6.125V13.125C26.25 13.6082 25.8582 14 25.375 14C24.8918 14 24.5 13.6082 24.5 13.125V8.57623L18.1772 16.3041C18.0207 16.4954 17.7905 16.6116 17.5436 16.6239C17.2967 16.6362 17.0561 16.5435 16.8813 16.3687L12.3554 11.8428L5.95764 20.6396C5.67341 21.0305 5.12617 21.1169 4.73535 20.8326C4.34453 20.5484 4.25812 20.0012 4.54236 19.6104L11.5424 9.98535C11.6929 9.77839 11.9264 9.6477 12.1816 9.62768C12.4367 9.60766 12.6878 9.70033 12.8687 9.88128L17.435 14.4476L23.5285 7H18.375C17.8918 7 17.5 6.60825 17.5 6.125Z" fill="#8E9294"/>
</svg>
