<svg width="28" height="28" viewBox="0 0 28 28" fill="none" xmlns="http://www.w3.org/2000/svg">
<path d="M14.6187 2.00628C14.277 1.66457 13.723 1.66457 13.3813 2.00628L2.88128 12.5063C2.71719 12.6704 2.625 12.8929 2.625 13.125V25.375C2.625 25.8582 3.01675 26.25 3.5 26.25H11.375C11.8582 26.25 12.25 25.8582 12.25 25.375V18.375H15.75V25.375C15.75 25.8582 16.1418 26.25 16.625 26.25H24.5C24.9832 26.25 25.375 25.8582 25.375 25.375V13.125C25.375 12.8929 25.2828 12.6704 25.1187 12.5063L22.75 10.1376V4.375C22.75 3.89175 22.3582 3.5 21.875 3.5H20.125C19.6418 3.5 19.25 3.89175 19.25 4.375V6.63756L14.6187 2.00628ZM4.375 24.5V13.4874L14 3.86244L23.625 13.4874V24.5H17.5V17.5C17.5 17.0168 17.1082 16.625 16.625 16.625H11.375C10.8918 16.625 10.5 17.0168 10.5 17.5V24.5H4.375Z" fill="#8E9294"/>
</svg>
