<svg width="32" height="32" viewBox="0 0 32 32" fill="none" xmlns="http://www.w3.org/2000/svg">
<path d="M32 16C32 14.0429 31.6479 12.1681 31.0048 10.4348L16 9.73914L0.995188 10.4348C0.352063 12.1681 0 14.0429 0 16C0 17.9571 0.352063 19.8319 0.995188 21.5652L16 22.2609L31.0048 21.5653C31.6479 19.8319 32 17.9571 32 16Z" fill="#F0F0F0"/>
<path d="M16.0001 32C22.8795 32 28.7442 27.658 31.0049 21.5652H0.995239C3.25593 27.658 9.12061 32 16.0001 32Z" fill="#0052B4"/>
<path d="M0.995239 10.4348H31.0049C28.7442 4.342 22.8795 0 16.0001 0C9.12061 0 3.25593 4.342 0.995239 10.4348Z" fill="#D80027"/>
<path d="M20.1739 11.1305H17.3913L17.8551 7.65217L19.7101 6.26086L21.5652 7.65217V10.4348L20.1739 11.1305Z" fill="#338AF3"/>
<path d="M11.8261 11.1305H14.6087L14.1449 7.65217L12.2898 6.26086L10.4348 7.65217V10.4348L11.8261 11.1305Z" fill="#338AF3"/>
<path d="M17.8551 11.1305H14.1449V7.65217L16 6.26086L17.8551 7.65217V11.1305Z" fill="#0052B4"/>
<path d="M10.4348 10.4349V18.087C10.4348 19.9091 11.3149 21.5294 12.6724 22.5453L13.6464 22.3016L14.8754 23.5379C15.2388 23.6128 15.6149 23.6523 16.0001 23.6523C16.3832 23.6523 16.7574 23.6133 17.1189 23.5392L18.5218 22.3711L19.3276 22.543C20.6845 21.5273 21.5653 19.9086 21.5653 18.087V10.4349H10.4348Z" fill="#F0F0F0"/>
<path d="M12.6609 10.4348H10.4348V12.6609H12.6609V10.4348Z" fill="#D80027"/>
<path d="M17.113 10.4348H14.8869V12.6609H17.113V10.4348Z" fill="#D80027"/>
<path d="M21.5652 10.4348H19.3391V12.6609H21.5652V10.4348Z" fill="#D80027"/>
<path d="M14.887 12.6609H12.6609V14.887H14.887V12.6609Z" fill="#D80027"/>
<path d="M19.3391 12.6609H17.113V14.887H19.3391V12.6609Z" fill="#D80027"/>
<path d="M12.6609 14.8863H10.4348V17.1123H12.6609V14.8863Z" fill="#D80027"/>
<path d="M14.887 17.1124H12.6609V19.3384H14.887V17.1124Z" fill="#D80027"/>
<path d="M17.113 14.8863H14.8869V17.1123H17.113V14.8863Z" fill="#D80027"/>
<path d="M21.5652 14.8863H19.3391V17.1123H21.5652V14.8863Z" fill="#D80027"/>
<path d="M19.3391 17.1124H17.113V19.3384H19.3391V17.1124Z" fill="#D80027"/>
<path d="M17.113 19.3384H14.8869V21.5645H17.113V19.3384Z" fill="#D80027"/>
<path d="M12.6609 19.3386H10.5785C10.7695 20.1661 11.145 20.9233 11.6599 21.5647H12.6609V19.3386Z" fill="#D80027"/>
<path d="M19.3391 21.5647H20.3401C20.8551 20.9234 21.2305 20.1661 21.4215 19.3387H19.3391V21.5647Z" fill="#D80027"/>
<path d="M12.6609 21.5648V22.5361C13.3083 23.0233 14.065 23.3726 14.887 23.5402V21.5648H12.6609Z" fill="#D80027"/>
<path d="M17.113 21.5648V23.5402C17.9351 23.3727 18.6917 23.0233 19.3391 22.5361V21.5648H17.113Z" fill="#D80027"/>
</svg>
