<svg width="32" height="32" viewBox="0 0 32 32" fill="none" xmlns="http://www.w3.org/2000/svg">
<g clip-path="url(#clip0)">
<path d="M16.0007 32C24.8368 32 32 24.8369 32 16.0007C32 7.16455 24.8368 0.00141907 16.0007 0.00141907C7.16453 0.00141907 0.00140381 7.16455 0.00140381 16.0007C0.00140381 24.8369 7.16453 32 16.0007 32Z" fill="white"/>
<path d="M31.0854 10.6653C31.0837 10.6603 31.0821 10.656 31.0803 10.6514C29.0326 4.87768 23.7655 0.629686 17.4371 0.0657959C19.8858 1.40827 20.601 5.6616 21.2276 10.6654C21.6555 14.0833 21.6583 17.8492 21.2357 21.2714C20.6144 26.3023 19.8962 30.5856 17.4371 31.9337C23.7771 31.3688 29.0518 27.1061 31.0916 21.3168C31.0969 21.3014 31.1014 21.2863 31.107 21.2714C31.6829 19.6204 32 17.8475 32 16.0002C31.9997 14.1287 31.6756 12.334 31.0854 10.6653Z" fill="#BE2126"/>
<path d="M22.0511 10.6653C21.4248 5.66146 19.8858 1.40821 17.4368 0.065732C16.9631 0.0237797 16.4841 0 15.9996 0C9.0394 0 3.12028 4.44539 0.919302 10.6514C0.917546 10.6559 0.915992 10.6603 0.914236 10.6653C0.324134 12.334 0 14.1287 0 16.0001C0 17.8476 0.31704 19.6203 0.893023 21.2712C0.89836 21.2862 0.903156 21.3013 0.908426 21.3167C3.10075 27.5387 9.02798 31.9997 15.9996 31.9997C16.4841 31.9997 16.9631 31.9759 17.4367 31.9335C19.8959 30.5854 21.4379 26.3021 22.0591 21.2712C22.4818 17.8489 22.4791 14.0832 22.0511 10.6653Z" fill="#CD2227"/>
<path d="M31.7286 13.0773H20.8359C20.9565 14.9119 20.9648 16.7958 20.8567 18.6352H31.7804C31.9234 17.778 31.9997 16.8983 31.9997 16.0002C31.9997 15.001 31.9047 14.0251 31.7286 13.0773Z" fill="#E4E4E4"/>
<path d="M22.2767 13.0773H14.5409V0.0683746C12.5618 0.246993 10.6878 0.786833 8.98299 1.62081V13.0776H0.271102C0.0949837 14.0254 0 15.0014 0 16.0004C0 16.8985 0.0762707 17.7781 0.219287 18.6353H8.98279V30.3791C10.6876 31.2131 12.5616 31.753 14.5407 31.9318V18.6351H22.2972C22.4056 16.7955 22.397 14.9116 22.2767 13.0773Z" fill="#F3F4F5"/>
</g>
<defs>
<clipPath id="clip0">
<rect width="32" height="32" fill="white"/>
</clipPath>
</defs>
</svg>
