<svg width="32" height="32" viewBox="0 0 32 32" fill="none" xmlns="http://www.w3.org/2000/svg">
<g clip-path="url(#clip0)">
<path d="M16 32C24.8366 32 32 24.8366 32 16C32 7.16344 24.8366 0 16 0C7.16344 0 0 7.16344 0 16C0 24.8366 7.16344 32 16 32Z" fill="#F0F0F0"/>
<path d="M15.3044 16H32C32 14.5559 31.8075 13.157 31.4488 11.8261H15.3044V16Z" fill="#D80027"/>
<path d="M15.3044 7.65221H29.6516C28.6722 6.05396 27.42 4.64127 25.9598 3.47827H15.3044V7.65221Z" fill="#D80027"/>
<path d="M16 32.0001C19.7656 32.0001 23.2267 30.6986 25.9598 28.5219H6.04022C8.77341 30.6986 12.2345 32.0001 16 32.0001Z" fill="#D80027"/>
<path d="M2.3484 24.3478H29.6516C30.438 23.0648 31.0477 21.6623 31.4488 20.1739H0.551208C0.952271 21.6623 1.56208 23.0648 2.3484 24.3478Z" fill="#D80027"/>
<path d="M16 16C16 7.1635 16 6.12175 16 0C7.1635 0 0 7.1635 0 16H16Z" fill="#0052B4"/>
<path d="M10.6396 13.6956C8.45448 13.6956 6.6831 11.9242 6.6831 9.73913C6.6831 7.55407 8.45454 5.78263 10.6396 5.78263C11.3209 5.78263 11.962 5.95494 12.5217 6.25819C11.6437 5.39963 10.4429 4.86963 9.11785 4.86963C6.42854 4.86963 4.24829 7.04982 4.24829 9.73919C4.24829 12.4286 6.42854 14.6088 9.11785 14.6088C10.4429 14.6088 11.6437 14.0788 12.5217 13.2202C11.962 13.5233 11.321 13.6956 10.6396 13.6956Z" fill="#FFDA44"/>
<path d="M11.7545 6.95648L12.457 8.42536L14.0433 8.05886L13.3329 9.52379L14.6086 10.5355L13.0203 10.8935L13.0247 12.5217L11.7545 11.5031L10.4843 12.5217L10.4886 10.8935L8.90027 10.5355L10.176 9.52379L9.46558 8.05886L11.052 8.42536L11.7545 6.95648Z" fill="#FFDA44"/>
</g>
<defs>
<clipPath id="clip0">
<rect width="32" height="32" fill="white"/>
</clipPath>
</defs>
</svg>
