<svg width="32" height="32" viewBox="0 0 32 32" fill="none" xmlns="http://www.w3.org/2000/svg">
<path d="M31.5 16C31.5 24.5604 24.5604 31.5 16 31.5C7.43959 31.5 0.5 24.5604 0.5 16C0.5 7.43959 7.43959 0.5 16 0.5C24.5604 0.5 31.5 7.43959 31.5 16Z" fill="#F0F0F0" stroke="#C2BCBC"/>
<mask id="path-2-inside-1" fill="white">
<path d="M32 16C32 24.8365 24.8365 32 16 32C7.1635 32 0 24.8365 0 16"/>
</mask>
<path d="M32 16C32 24.8365 24.8365 32 16 32C7.1635 32 0 24.8365 0 16" fill="#D80027"/>
<path d="M31 16C31 24.2842 24.2842 31 16 31V33C25.3888 33 33 25.3888 33 16H31ZM16 31C7.71578 31 1 24.2842 1 16H-1C-1 25.3888 6.61122 33 16 33V31Z" fill="#C2BCBC" mask="url(#path-2-inside-1)"/>
</svg>
